<?xml version="1.0" encoding="utf-8"?>
<!-- Generator: Adobe Illustrator 21.0.0, SVG Export Plug-In . SVG Version: 6.00 Build 0)  -->
<svg version="1.1" xmlns="http://www.w3.org/2000/svg" xmlns:xlink="http://www.w3.org/1999/xlink" x="0px" y="0px"
	 viewBox="0 0 878.7 311.8" style="enable-background:new 0 0 878.7 311.8;" xml:space="preserve">
<style type="text/css">
	.st0{fill:#3F3F3F;}
	.st1{fill:#F5D313;}
	.st2{fill:#F1C40F;}
	.st3{fill:#0083BC;}
	.st4{fill:#00A2CD;}
	.st5{fill:#FE444B;}
	.st6{fill:#FD363C;}
</style>
<g id="Hintergrund">
	<path class="st0" d="M184.8,138.9c-2,2.2-4.2,4.2-6.7,6.2c-2.5,2-5.2,3.7-8.1,5.2c-2.9,1.5-6.1,2.7-9.5,3.6
		c-3.4,0.9-7,1.3-10.8,1.3c-6.2,0-11.8-0.9-16.8-2.8c-5-1.9-9.3-4.6-12.8-8.2c-3.5-3.6-6.3-7.9-8.3-13.1c-2-5.1-2.9-10.9-2.9-17.4
		c0-6.6,1.1-12.6,3.4-17.9c2.2-5.3,5.1-9.8,8.6-13.4c3.5-3.7,7.3-6.5,11.4-8.4c4.1-1.9,8.1-2.9,11.9-2.9c2.9,0,5.3,0.3,7.5,1
		s3.9,1.5,5.4,2.4c1.5,0.9,2.6,1.8,3.4,2.7c0.8,0.9,1.3,1.5,1.6,1.8l2.7-6.5h18.2v32.8H162c-0.1-1.9-0.4-3.7-0.9-5.4
		c-0.5-1.8-1.3-3.3-2.3-4.7c-1-1.3-2.2-2.4-3.7-3.2c-1.5-0.8-3.3-1.2-5.4-1.2c-2.1,0-4,0.6-5.7,1.8c-1.7,1.2-3.1,2.8-4.3,4.9
		c-1.2,2.1-2.1,4.5-2.8,7.3c-0.7,2.8-1,5.7-1,8.9c0,2.9,0.4,5.6,1.1,8.2c0.7,2.6,1.8,4.9,3.2,6.9c1.4,2,3.2,3.6,5.3,4.8
		c2.1,1.2,4.5,1.8,7.3,1.8c2.4,0,4.7-0.5,6.8-1.6c2.2-1.1,4-2.3,5.7-3.6c1.6-1.3,2.9-2.6,4-3.8c1-1.2,1.7-1.9,1.9-2.3L184.8,138.9z"
		/>
	<path class="st0" d="M229.7,155.5c-6,0-11.6-0.9-16.7-2.7c-5.1-1.8-9.5-4.4-13.1-8c-3.7-3.5-6.5-8-8.6-13.4
		c-2-5.4-3.1-11.7-3.1-18.9c0-6.2,1-11.9,2.9-17.1c2-5.2,4.7-9.6,8.3-13.4c3.6-3.7,7.9-6.6,12.8-8.7c5-2,10.5-3.1,16.5-3.1
		c7.1,0,13.2,1,18.4,3.1c5.2,2,9.5,4.9,13,8.7c3.4,3.7,6,8.3,7.6,13.6c1.7,5.3,2.5,11.2,2.5,17.7c0,6.6-0.9,12.4-2.7,17.6
		c-1.8,5.2-4.4,9.6-7.9,13.2c-3.5,3.6-7.7,6.4-12.8,8.3C242,154.5,236.2,155.5,229.7,155.5z M229.7,137.3c1.8,0,3.5-0.6,4.9-1.7
		c1.4-1.2,2.7-2.8,3.7-4.9c1-2.1,1.8-4.6,2.4-7.5c0.5-2.9,0.8-6.2,0.8-9.8c0-3.5-0.3-6.8-0.8-9.9c-0.5-3-1.3-5.7-2.3-8
		c-1-2.3-2.4-4.1-4-5.4c-1.6-1.3-3.5-2-5.8-2c-1.8,0-3.4,0.6-4.8,1.8c-1.4,1.2-2.7,2.9-3.7,5c-1,2.2-1.8,4.7-2.4,7.7
		c-0.6,3-0.9,6.3-0.9,9.8c0,3.8,0.3,7.2,1,10.2c0.7,3,1.5,5.6,2.7,7.8c1.1,2.2,2.5,3.8,4,5C226.1,136.7,227.8,137.3,229.7,137.3z"/>
	<path class="st0" d="M275,153.4V138h7.2V87.8H275V72.6h35.3c7,0,13.2,1,18.7,3.1c5.4,2,10,4.8,13.8,8.3c3.7,3.5,6.6,7.7,8.6,12.4
		c2,4.8,2.9,9.9,2.9,15.5c0,13.3-3.8,23.5-11.4,30.7c-7.6,7.2-18.6,10.8-33,10.8H275z M327.6,111.9c0-3.1-0.3-6.1-1-9
		c-0.7-2.9-1.7-5.5-3.1-7.7c-1.4-2.2-3.2-4-5.4-5.4c-2.2-1.3-4.8-2-7.9-2h-4.4V138h4.4c3.1,0,5.7-0.7,7.9-2.1c2.2-1.4,4-3.3,5.4-5.6
		c1.4-2.4,2.4-5.1,3.1-8.3C327.3,118.9,327.6,115.5,327.6,111.9z"/>
	<path class="st0" d="M358.3,72.6H428v25.6h-20V87.8h-18.5v16h22v15.4h-22V138H408v-10.8h20v26.1h-69.7V138h7.3V87.8h-7.3V72.6z"/>
	<polygon class="st1" points="304.8,69.1 271.4,69.1 271.4,84.3 278.6,84.3 278.6,89.1 	"/>
	<path class="st1" d="M158.4,75.6c-0.2-0.3-0.8-0.9-1.6-1.8c-0.8-0.9-1.9-1.8-3.4-2.7c-1.5-0.9-3.3-1.7-5.4-2.4
		c-2.1-0.7-4.6-1-7.5-1c-3.8,0-7.7,1-11.8,2.9c-4.1,1.9-7.9,4.7-11.4,8.4c-3.5,3.7-6.3,8.1-8.6,13.4c-2,4.6-3,9.8-3.2,15.4h27.1
		c0.1-2.2,0.4-4.4,0.9-6.5c0.7-2.8,1.6-5.2,2.8-7.3c1.2-2.1,2.6-3.7,4.3-4.9c1.7-1.2,3.6-1.8,5.7-1.8s3.9,0.4,5.4,1.2
		c1.5,0.8,2.7,1.9,3.7,3.2c1,1.3,1.7,2.9,2.3,4.7c0.5,1.8,0.8,3.6,0.9,5.4h20.7V69.1h-18.1L158.4,75.6z"/>
	<path class="st1" d="M265.9,98.9c-0.4-2.3-0.9-4.6-1.6-6.7c-1.7-5.3-4.2-9.8-7.6-13.6c-3.4-3.7-7.7-6.6-12.9-8.7
		c-5.2-2-11.3-3.1-18.4-3.1c-6,0-11.5,1-16.5,3.1c-5,2-9.2,4.9-12.8,8.7c-3.6,3.7-6.4,8.2-8.3,13.3c-1.8,4.8-2.8,10.1-2.9,15.8h28.5
		c0.1-3,0.3-5.9,0.8-8.5c0.6-3,1.4-5.6,2.4-7.7c1-2.2,2.3-3.8,3.7-5c1.4-1.2,3-1.8,4.8-1.8c2.2,0,4.2,0.7,5.8,2
		c1.6,1.3,2.9,3.1,4,5.4c1,2.3,1.8,4.9,2.3,8c0.4,2.4,0.6,5.1,0.7,7.8h16.4L265.9,98.9z"/>
	<path class="st2" d="M347.7,92.9c-2-4.8-4.8-8.9-8.6-12.4c-3.7-3.5-8.3-6.3-13.8-8.3c-5.4-2-11.7-3.1-18.7-3.1h-1.9l-26.2,20v18.7
		h23.7V84.3h4.4c3.1,0,5.7,0.7,7.9,2c2.2,1.3,4,3.1,5.4,5.4c1.4,2.2,2.4,4.8,3.1,7.7c0.6,2.7,0.9,5.5,1,8.4h26.6
		C350.5,102.5,349.6,97.5,347.7,92.9z"/>
	<polygon class="st2" points="354.6,84.3 361.9,84.3 361.9,107.8 407.8,107.8 407.8,100.3 385.9,100.3 385.9,84.3 404.3,84.3 
		404.3,94.6 424.3,94.6 424.3,69.1 354.6,69.1 	"/>
	<path class="st2" d="M266.8,107.8c-0.1-3.1-0.4-6.1-0.9-8.9l-11.6,8.9H266.8z"/>
	<path class="st3" d="M236.7,121.2c-0.5,2.3-1.2,4.3-2,6c-0.4,0.8-0.9,1.6-1.4,2.3h30c0.3-0.7,0.5-1.3,0.8-2
		c1.8-5.2,2.7-11.1,2.7-17.6c0-0.7,0-1.4-0.1-2.1h-12.5L236.7,121.2z"/>
	<g>
		<path class="st3" d="M324,108.4c0,3.6-0.3,7-1,10.2c-0.7,3.2-1.7,5.9-3.1,8.3c-0.6,1-1.2,1.9-2,2.7h28.2
			c2.9-5.9,4.4-12.9,4.4-21.1c0-0.2,0-0.4,0-0.6H324C324,108,324,108.2,324,108.4z"/>
		<rect x="278.6" y="107.8" class="st3" width="23.7" height="21.7"/>
	</g>
	<g>
		<path class="st4" d="M161.9,126.7c-1.2,1-2.6,1.9-4.1,2.8h18.1l-8.1-8.8c-0.2,0.3-0.9,1.1-1.9,2.3
			C164.8,124.1,163.5,125.4,161.9,126.7z"/>
		<path class="st4" d="M105.6,107.8c0,0.8-0.1,1.6-0.1,2.4c0,6.5,1,12.3,2.9,17.4c0.2,0.6,0.5,1.2,0.8,1.9h31.9
			c-1.6-1.1-3.1-2.4-4.3-4.1c-1.4-2-2.5-4.3-3.2-6.9c-0.7-2.6-1.1-5.4-1.1-8.2c0-0.8,0.1-1.6,0.1-2.4H105.6z"/>
	</g>
	<g>
		<path class="st4" d="M237.9,107.8c0,0.7,0.1,1.4,0.1,2.1c0,3.6-0.3,6.9-0.8,9.8c-0.1,0.5-0.3,1-0.4,1.5l17.5-13.4H237.9z"/>
		<path class="st4" d="M216.9,127.1c-1.1-2.2-2-4.8-2.7-7.8c-0.7-3-1-6.5-1-10.2c0-0.4,0-0.8,0.1-1.3h-28.5c0,0.4-0.1,0.8-0.1,1.3
			c0,7.2,1,13.5,3.1,18.9c0.2,0.5,0.4,1,0.7,1.5h30C217.9,128.8,217.4,128,216.9,127.1z"/>
	</g>
	<g>
		<rect x="404.3" y="123.8" class="st3" width="20" height="5.7"/>
		<polygon class="st3" points="361.9,129.5 385.9,129.5 385.9,115.7 407.8,115.7 407.8,107.8 361.9,107.8 		"/>
	</g>
	<path class="st5" d="M156.2,130.3c-2.2,1.1-4.4,1.6-6.8,1.6c-2.8,0-5.2-0.6-7.3-1.8c-0.3-0.2-0.6-0.5-0.9-0.7h-31.9
		c1.9,4.3,4.4,8.1,7.5,11.2c3.5,3.6,7.8,6.3,12.8,8.2c5,1.9,10.6,2.8,16.8,2.8c3.8,0,7.4-0.4,10.7-1.3c3.4-0.9,6.5-2.1,9.5-3.6
		c2.9-1.5,5.6-3.2,8.1-5.2c2.5-2,4.7-4,6.7-6.2l-5.4-5.9h-18.1C157.2,129.8,156.8,130.1,156.2,130.3z"/>
	<path class="st5" d="M203.6,146.6l18.3-14c-0.3-0.2-0.6-0.3-0.9-0.5c-0.9-0.7-1.8-1.6-2.5-2.6l0,0h-30l0,0c2,4.7,4.6,8.6,7.9,11.8
		C198.5,143.4,201,145.1,203.6,146.6z"/>
	<path class="st6" d="M233.4,129.5c-0.7,1-1.5,1.9-2.3,2.6c-1.4,1.2-3.1,1.7-4.9,1.7c-1.5,0-2.9-0.4-4.3-1.2l-18.3,14
		c1.9,1,3.8,2,5.9,2.7c5.1,1.8,10.6,2.7,16.6,2.7c6.5,0,12.3-1,17.4-2.9c5-1.9,9.3-4.7,12.8-8.3c3-3.1,5.3-6.9,7.1-11.3H233.4z"/>
	<path class="st6" d="M318,129.5c-1,1.1-2.1,2.1-3.4,2.9c-2.2,1.4-4.8,2.1-7.9,2.1h-4.4v-5h-23.7v5h-7.2v15.4h34.8
		c14.3,0,25.3-3.6,32.9-10.8c2.9-2.8,5.3-6,7.1-9.6H318z"/>
	<polygon class="st6" points="404.3,129.5 404.3,134.5 385.9,134.5 385.9,129.5 361.9,129.5 361.9,134.5 354.6,134.5 354.6,149.9 
		424.3,149.9 424.3,129.5 	"/>
	<path class="st0" d="M525.2,107.6c0.1-0.5,0.3-1.2,0.6-2.1c0.3-0.8,0.7-1.7,1.2-2.7c0.4-0.9,0.9-1.8,1.3-2.8
		c0.5-0.9,0.8-1.7,1.2-2.4l6.4-11.7h-6.4V71.2h31.1V86h-6.2l-21.4,37.6v13.4h6.5v15h-37v-15h6.6v-13.6L486.6,86h-5.7V71.2h39.5V86
		h-6l6.7,12.3c0.2,0.5,0.4,1.2,0.8,2.1c0.3,0.8,0.7,1.7,1.1,2.7c0.4,0.9,0.7,1.8,1,2.7c0.3,0.8,0.5,1.5,0.7,2H525.2z"/>
	<path class="st0" d="M602.5,154c-6,0-11.6-0.9-16.6-2.7c-5.1-1.8-9.5-4.4-13.1-8c-3.7-3.5-6.5-8-8.6-13.3c-2-5.4-3.1-11.7-3.1-18.9
		c0-6.2,1-11.9,2.9-17.1c2-5.2,4.7-9.6,8.3-13.3c3.6-3.7,7.9-6.6,12.8-8.7c5-2,10.5-3.1,16.5-3.1c7.1,0,13.2,1,18.4,3.1
		c5.2,2,9.5,4.9,12.9,8.7c3.4,3.7,6,8.3,7.6,13.6c1.7,5.3,2.5,11.2,2.5,17.7c0,6.5-0.9,12.4-2.7,17.6c-1.8,5.2-4.4,9.6-7.9,13.2
		c-3.5,3.6-7.7,6.4-12.8,8.3C614.9,153.1,609.1,154,602.5,154z M602.5,135.9c1.8,0,3.5-0.6,4.9-1.7c1.4-1.2,2.7-2.8,3.7-4.9
		c1-2.1,1.8-4.6,2.4-7.5c0.5-2.9,0.8-6.2,0.8-9.8c0-3.5-0.3-6.8-0.8-9.9c-0.5-3-1.3-5.7-2.3-8c-1-2.3-2.4-4.1-4-5.4
		c-1.6-1.3-3.5-2-5.8-2c-1.8,0-3.4,0.6-4.8,1.8c-1.4,1.2-2.7,2.9-3.7,5c-1,2.2-1.8,4.7-2.4,7.7c-0.6,3-0.9,6.3-0.9,9.8
		c0,3.8,0.3,7.2,1,10.2c0.7,3,1.5,5.6,2.7,7.8c1.1,2.2,2.5,3.8,4,5C598.9,135.3,600.7,135.9,602.5,135.9z"/>
	<path class="st0" d="M646.7,71.2h36.8v14.9h-6.2v25c0,4.6,0.2,8.4,0.8,11.3c0.5,2.9,1.3,5.2,2.3,6.9c1,1.7,2.2,2.8,3.6,3.4
		c1.4,0.6,3.1,0.9,4.9,0.9c1.8,0,3.4-0.2,4.8-0.8c1.4-0.5,2.7-1.5,3.7-3.1c1-1.6,1.8-3.9,2.4-6.8c0.5-3,0.8-7,0.8-12V86.4h-6.2V71.2
		h34.2v14.9h-6.2v28.1c0,13.7-2.8,23.8-8.4,30.2c-5.6,6.4-13.9,9.6-24.7,9.6c-11.7-0.4-20.6-3.7-26.7-10c-6.1-6.3-9.1-16-9.1-29.2
		V86.2h-6.5V71.2z"/>
	<path class="st0" d="M733,71.2h37.6c6.7,0,12.1,0.6,16.3,1.8c4.2,1.2,7.4,2.9,9.8,5.1c2.3,2.2,3.9,4.7,4.7,7.6
		c0.8,2.9,1.2,6,1.2,9.3c0,2.2-0.4,4.3-1.3,6.2c-0.8,1.9-2,3.6-3.5,5c-1.5,1.4-3.3,2.6-5.3,3.6c-2,1-4.3,1.6-6.6,1.9
		c2,0.3,3.9,0.9,5.7,1.9c1.8,1,3.4,2.2,4.8,3.6c1.4,1.5,2.5,3.1,3.4,5c0.8,1.8,1.3,3.8,1.3,5.9c0,2.5,0.2,4.4,0.6,5.8
		c0.4,1.4,1.1,2.1,2.2,2.1c1.8,0,2.7-1.2,2.7-3.7v-3.8h7.7v6.4c0,2.4-0.3,4.7-0.8,6.9c-0.5,2.2-1.5,4.2-2.8,5.9
		c-1.3,1.7-3,3.1-5.2,4.1c-2.2,1-4.9,1.6-8.1,1.6c-7.6,0-13.3-1.9-16.9-5.7c-3.7-3.8-5.5-9.1-5.5-15.8c0-2.6-0.1-4.8-0.3-6.5
		c-0.2-1.7-0.8-3-1.6-4c-0.8-1-2-1.6-3.5-2c-1.5-0.4-3.6-0.6-6.1-0.6v17.9h7V152H733v-15.3h6.5V86.3H733V71.2z M763.3,86.2v19.6h5.2
		c3.4,0,6.1-0.8,8.1-2.4c2-1.6,3-3.9,3-7c0-3.5-0.9-6-2.7-7.7c-1.8-1.7-4.4-2.5-7.8-2.5H763.3z"/>
	<path class="st0" d="M332.4,163.2h69.1v25.5h-20.5v-10.3h-17.5v20.1h22V214h-22v14.7h11.8V244h-43v-15.4h7.2v-50.2h-7.2V163.2z"/>
	<path class="st0" d="M405,163.2h36.8v14.9h-6.2v25c0,4.6,0.3,8.4,0.8,11.3c0.5,2.9,1.3,5.2,2.3,6.9c1,1.7,2.2,2.8,3.6,3.4
		c1.4,0.6,3.1,0.9,4.9,0.9c1.8,0,3.4-0.2,4.8-0.8c1.4-0.5,2.7-1.5,3.7-3.1c1-1.6,1.8-3.9,2.4-6.8c0.5-3,0.8-7,0.8-12v-24.5h-6.2
		v-15.3h34.2v14.9h-6.2v28.1c0,13.7-2.8,23.8-8.4,30.2c-5.6,6.4-13.9,9.6-24.7,9.6c-11.7-0.4-20.6-3.7-26.7-10
		c-6.1-6.3-9.1-16-9.1-29.2v-28.5H405V163.2z"/>
	<path class="st0" d="M567.7,163.2v30h-17v-14.8H541v50.2h9.6V244h-43v-15.4h9.5v-50.2h-9.9v14.8h-17v-30H567.7z"/>
	<path class="st0" d="M571.2,163.2h36.8v14.9h-6.2v25c0,4.6,0.2,8.4,0.8,11.3c0.5,2.9,1.3,5.2,2.3,6.9c1,1.7,2.2,2.8,3.6,3.4
		c1.4,0.6,3.1,0.9,4.9,0.9c1.8,0,3.4-0.2,4.8-0.8c1.4-0.5,2.7-1.5,3.7-3.1c1-1.6,1.8-3.9,2.4-6.8c0.5-3,0.8-7,0.8-12v-24.5h-6.2
		v-15.3h34.2v14.9h-6.2v28.1c0,13.7-2.8,23.8-8.4,30.2c-5.6,6.4-13.9,9.6-24.7,9.6c-11.7-0.4-20.6-3.7-26.7-10
		c-6.1-6.3-9.1-16-9.1-29.2v-28.5h-6.5V163.2z"/>
	<path class="st0" d="M657.5,163.2h37.6c6.7,0,12.1,0.6,16.3,1.8c4.2,1.2,7.4,2.9,9.8,5.1c2.3,2.2,3.9,4.7,4.7,7.6
		c0.8,2.9,1.2,6,1.2,9.3c0,2.2-0.4,4.3-1.3,6.2c-0.8,1.9-2,3.6-3.5,5c-1.5,1.4-3.3,2.6-5.3,3.6c-2,1-4.3,1.6-6.6,1.9
		c2,0.3,3.9,0.9,5.7,1.9c1.8,1,3.4,2.2,4.8,3.6c1.4,1.5,2.5,3.1,3.4,5c0.8,1.8,1.3,3.8,1.3,5.9c0,2.5,0.2,4.4,0.6,5.8
		c0.4,1.4,1.1,2.1,2.2,2.1c1.8,0,2.7-1.2,2.7-3.7v-3.8h7.7v6.4c0,2.4-0.3,4.7-0.8,6.9c-0.5,2.2-1.5,4.2-2.8,5.9
		c-1.3,1.7-3,3.1-5.2,4.1c-2.2,1-4.9,1.6-8.1,1.6c-7.6,0-13.3-1.9-16.9-5.7c-3.7-3.8-5.5-9.1-5.5-15.8c0-2.6-0.1-4.8-0.3-6.5
		c-0.2-1.7-0.8-3-1.6-4c-0.8-1-2-1.6-3.5-2c-1.5-0.4-3.6-0.6-6.1-0.6v17.9h7V244h-37.3v-15.3h6.5v-50.4h-6.5V163.2z M687.8,178.2
		v19.6h5.2c3.4,0,6.1-0.8,8.1-2.4c2-1.6,3-3.9,3-7c0-3.5-0.9-6-2.7-7.7c-1.8-1.7-4.4-2.5-7.8-2.5H687.8z"/>
	<path class="st0" d="M742.7,163.2h69.7v25.5h-20v-10.3h-18.5v15.9h22v15.4h-22v18.8h18.5v-10.7h20V244h-69.7v-15.4h7.3v-50.2h-7.3
		V163.2z"/>
	<g>
		<path class="st0" d="M53,118.8V102l40.1-14.5v16.6l-24.9,6.3l24.9,6.3v16.6L53,118.8z"/>
	</g>
	<g>
		<path class="st0" d="M437.5,116.4l24.9-6.3l-24.9-6.3V87.2l40.1,14.5v16.8L437.5,133V116.4z"/>
	</g>
</g>
<g id="Ebene_1">
</g>
</svg>
